<?xml version="1.0" encoding="utf-8"?>
<!-- Generator: Adobe Illustrator 22.1.0, SVG Export Plug-In . SVG Version: 6.00 Build 0)  -->
<svg version="1.1" id="Calque_1" xmlns="http://www.w3.org/2000/svg" xmlns:xlink="http://www.w3.org/1999/xlink" x="0px" y="0px"
	 viewBox="0 0 97.2 75.5" style="enable-background:new 0 0 97.2 75.5;" xml:space="preserve">
<style type="text/css">
	.st0{opacity:0.5;fill:#FFFFFF;enable-background:new    ;}
	.st1{fill:#FFFFFF;}
	.st2{enable-background:new    ;}
	.st3{fill:#F25319;}
</style>
<g id="Groupe_71" transform="translate(122.264 632)">
	<g id="Groupe_70" transform="translate(-122.264 -632)">
		<path id="Tracé_98" class="st0" d="M62.8,29.7c0-16.4-14-28.7-31.3-29.6C15.4-1,1.4,11.2,0.3,27.3c-0.1,0.8-0.1,1.6-0.1,2.3
			c0,16.4,14,29.6,31.3,29.6S62.8,46.1,62.8,29.7z"/>
		<g id="Groupe_69" transform="translate(0 0.381)">
			<path id="Tracé_99" class="st1" d="M3.7,15.5c0,0,0.8,0.2,1.1,0.6c0.2,0.4-0.6,0.4-0.4,0.6c0.2,0.3,0.3,0.5,0.4,0.8l-0.4,0.4
				L4.7,19l-0.4,0.4c-0.3,0.9-0.6,1.7-1.1,2.5c-0.2,0-0.7-0.5-0.7-0.5S2,23.9,3,24.2c0,0-0.8,1.1-1.5,0.8s-0.4,4.8-0.4,4.8
				s-0.5,0.5-0.9-0.3C-0.3,28.6-0.2,20.6,3.7,15.5z"/>
			<path id="Tracé_100" class="st1" d="M57.2,16.9"/>
			<path id="Tracé_101" class="st1" d="M46.6,10.3c0,0,0.4-0.2,0.4,0c0,0,0.3,0.5,0.2,0.5s1.4,0.6,1.2,0.9c0,0,0.4-0.2,0.4,0
				s0.2,0.5,0,0.5c0,0-1.5,0.6-1.5,0.5c0-0.2,0.1-0.4,0.2-0.5h-0.4l0.2-0.2v-0.7L47,11.2c0,0-0.8-0.5-0.8-0.8c0-0.2,0.2-0.3,0.2-0.3
				S46.6,10,46.6,10.3z"/>
			<path id="Tracé_102" class="st1" d="M45.8,11.6c0,0,0.4-0.8,0.9,0.1s-0.9,0.8-0.9,0.8S45.6,11.6,45.8,11.6z"/>
			
				<ellipse id="Ellipse_33" transform="matrix(3.501355e-02 -0.9994 0.9994 3.501355e-02 8.1606 59.3078)" class="st1" cx="34.8" cy="25.4" rx="2.5" ry="1.6"/>
			
				<ellipse id="Ellipse_34" transform="matrix(0.1982 -0.9802 0.9802 0.1982 5.2954 60.8872)" class="st1" cx="39.9" cy="27.2" rx="1.5" ry="1.2"/>
			
				<ellipse id="Ellipse_35" transform="matrix(0.1982 -0.9802 0.9802 0.1982 5.6917 65.7262)" class="st1" cx="43" cy="29.4" rx="1.1" ry="0.8"/>
			
				<ellipse id="Ellipse_36" transform="matrix(0.1982 -0.9802 0.9802 0.1982 5.0199 69.5913)" class="st1" cx="45" cy="31.7" rx="0.8" ry="0.6"/>
			
				<ellipse id="Ellipse_37" transform="matrix(0.1982 -0.9802 0.9802 0.1982 3.5019 73.196)" class="st1" cx="46.5" cy="34.5" rx="0.7" ry="0.5"/>
			<path id="Tracé_103" class="st1" d="M29,22.2c0,0-2-4.9-7-0.5c0,0-0.5,6.1,2.7,1.6l1.8,0.2l-1.6,2.7c0,0,2.9-1.2,3.3,0.2
				c0.2,1.1,0.3,2.2,0.2,3.3c0,0,2.9-0.7,2.8,0.2s2.9-1.2,5.6,0.5c0,0,1.3-1.4,3.7,2.4c1.4,0.3,2.6,1.4,3,2.8c0,0,4.9,3.7,0.5,5.7
				c0,0-2,7.9-8.4,10.7c0,0-3,5.7-4.3,5c-1.2-0.7-1.7-7.3,1.5-12.3c0,0-8.2-7.9-2.4-12c-0.7,0.6-8.6-6.3-7.5-6.7
				c0.7-0.2-3.5,1.6-7.5-6.2s-0.5-7.5-0.5-7.5S11.9,10,13,8.7s-6.9,2.5-6.9,2.5S13.4-2.5,36.5,0.4c0,0-5.9-0.3-5.4,0.7
				c0.4,1,6.4,3.3,6.2,4.7c-0.1,0.8-0.7,1.4-1.5,1.3c0,0,0,0,0,0c0,0-5.8-6.4-6.5-4.6s7.1,9.9,7.1,9.9S31.3,22.8,29,22.2z"/>
			<path id="Tracé_104" class="st1" d="M51,6.9c0,0,19.8,13.6,6.8,37.7c0,0-1.2-0.4,1.4-12.3c-0.5-0.5-0.8-1.1-0.9-1.8
				c-0.4-1.5-5.4,2.9-6-2.3s2.5-10.2,6.7-9l-0.8-2.4c0,0-2.4-0.2-0.8-2.4c0,0-1.2-2.5-1.9,0.8l0.8,1.9c0,0-2.6-3-3.6-2.2
				c0,0,0.8,1,1.3,1s0.5,0.5,0.5,0.5v0.9l-0.4-1l-1.8-1c0,0-1.8,0.6-1.4,0.3c0.2-0.2-0.2,2.4-0.2,2.4s-2.9,1.2-2.8,0.3
				c0-0.7-0.1-1.3-0.3-1.9c0.7,0.1,1.3-0.1,1.9-0.3c0.5-0.5-0.5-1.5-0.5-1.5h-0.8v-0.5l0.5-0.5v-0.5l0.5,0.5l0.5-0.9l0.5-0.9l-0.4-1
				l0.8,1h0.5l1-0.4l-0.4-1.5c0,0-1.2-2.5-1.8-2c-0.5,0.5,0.9,2.2,0.9,2.2L49,9.6l-0.2,1.1L48,10.2c0,0,1.5-2.4,0.2-2.1
				C48.2,8.1,47.4,5.7,51,6.9L51,6.9z"/>
			<path id="Tracé_105" class="st1" d="M9.4,39.4H7.6l-1.4-1.8c0,0-7.1,3.8,0.5,8c0,0,3.3,0,5.2,4.2c0,0,5.3-2.5-0.8-8.3
				C11,41.4,10,36.6,9.4,39.4z"/>
		</g>
	</g>
	<g class="st2">
		<path class="st3" d="M-74-565.1c-0.2-0.1-0.2-0.3-0.2-0.6l0-4.1c-0.3-0.2-0.8-0.4-1.5-0.5c-0.7-0.1-1.4-0.2-2.1-0.3
			c-0.2,0.4-0.4,1-0.5,1.6l-0.1,0.6c0,0.1-0.1,0.5-0.2,1c-0.1,0.5-0.2,0.9-0.4,1.3c-0.1,0.4-0.3,0.6-0.4,0.8c-0.8,0-1.2-0.2-1.4-0.6
			c0.2-0.3,0.5-1.3,0.8-2.9l1.1-5.7c0.5-2.7,0.9-5,1.3-6.9c0.4-1.9,0.8-3.5,1.3-4.8c0.5-1.4,0.9-2.1,1.4-2.1s0.8,0.1,1,0.3
			c0,0.8,0.2,2.8,0.5,6c0.4,3.1,0.6,5.2,0.6,6.4c0,1.1,0.1,2.7,0.3,4.7c0.2,2.1,0.3,3.8,0.3,5c0,0.7-0.3,1.1-1,1
			C-73.6-564.9-73.9-564.9-74-565.1z M-74.2-571.6c-0.1-0.9-0.2-2-0.3-3.4c-0.4-4.7-0.7-7.5-0.7-8.6l0-0.2c-0.2,0.2-0.5,1.1-0.9,2.8
			c-0.4,1.7-0.7,3.4-1,5.3c-0.3,1.9-0.5,3.2-0.5,3.8c0.9,0.3,1.8,0.4,2.8,0.4C-74.7-571.5-74.5-571.6-74.2-571.6z"/>
		<path class="st3" d="M-69.7-565.3c0.5-0.7,1-2.6,1.6-5.6c0.6-3,1.1-6.2,1.6-9.5c0.4-3.2,0.7-5.3,0.7-6.4l-1.1,0.1
			c-0.1,0-0.4,0-0.7,0c-1.1,0-1.7-0.3-1.7-1l0-0.2l0.4-0.5l0,0c0.2,0.1,0.5,0.1,0.9,0.1c0.3,0,0.8-0.1,1.5-0.2
			c0.7-0.1,1.2-0.1,1.5-0.1c0.2,0,0.4,0.1,0.6,0.3c0.2,0.2,0.2,0.4,0.2,0.6c0,5.4-1.2,12.6-3.6,21.5l0.7,0c0.3,0,0.6-0.1,1-0.1
			c1.1,0,1.6,0.3,1.6,0.9l0,0.2l-0.5,0.5l-1.9,0c-0.6,0-1.2,0.1-1.9,0C-69.2-564.6-69.5-564.8-69.7-565.3z"/>
		<path class="st3" d="M-58.9-565c-0.2-0.3-0.3-0.7-0.3-1.1c0-0.7,0.1-1.5,0.1-2.5l0.1-0.8l0.1-1.6c0-0.7-0.1-2.3-0.2-4.8
			c-0.1-2.5-0.2-4.1-0.2-4.8c0-0.1,0-0.2,0-0.4s0-0.5,0-0.8c0-0.4,0-0.9,0-1.5c0-1.5-0.1-2.5-0.3-2.9c-0.1,0-0.4,0-0.8,0.1l-0.9,0.1
			c-0.3,0-0.5-0.1-0.7-0.2c-0.2-0.2-0.3-0.4-0.3-0.6s0.3-0.5,0.7-0.6c0.7-0.2,2-0.4,3.7-0.5c0.7,0,1.1-0.1,1.3-0.1
			c0.2,0,0.5,0.1,0.7,0.3c0.2,0.2,0.3,0.4,0.3,0.6c0,0.2-0.1,0.4-0.3,0.6c-0.2,0.2-0.4,0.2-0.7,0.2l-0.6,0c-0.2,0-0.4,0-0.6,0
			l-0.3,0c0.1,1.4,0.2,2.7,0.2,3.8l0,2c0,0.6,0,1.3,0,2c0,1,0,2.2,0.1,3.6c0.1,1.7,0.1,2.9,0.1,3.6c0,0.8,0,1.7,0.1,2.8
			c0.1,1.1,0.1,2,0.1,2.8c0,1-0.3,1.5-0.9,1.5C-58.5-564.5-58.7-564.7-58.9-565z"/>
		<path class="st3" d="M-47.8-565.2L-47.8-565.2c-0.1-1.2-0.2-2.4-0.5-3.8c-0.3-1.3-0.7-3-1.3-4.9c-0.4-1.4-0.8-2.7-1.1-3.9
			l-0.1,12.2c0,0.3-0.1,0.6-0.2,0.7c-0.1,0.2-0.3,0.2-0.7,0.2c-0.2,0-0.4-0.1-0.6-0.2c-0.1-0.2-0.2-0.4-0.2-0.6l0-0.2l0.1-9.1
			c0.1-2.7,0.1-5.7,0.1-9.1l0-3.8c0-0.2,0.1-0.4,0.2-0.5c0.1-0.1,0.3-0.1,0.7-0.1c0.5,0,1,0.1,1.4,0.3c0.4,0.2,0.8,0.5,1.1,0.8
			c0.6,0.7,1,1.6,1.2,2.6c0.1,0.4,0.1,0.9,0.1,1.4c0,0.3,0,0.7-0.1,1c-0.1,0.4-0.1,0.6-0.1,0.7c0,0.2-0.1,0.5-0.3,0.9
			c-0.1,0.4-0.2,0.7-0.3,0.8l-0.4,0.9L-49-578c0,0.7,0.1,1.7,0.4,2.8s0.5,2.2,0.8,3.2c0.2,0.7,0.6,1.8,1.1,3.4l0.9,2.7v0.1
			c0,0.4,0,0.7-0.1,0.9c-0.1,0.3-0.3,0.5-0.7,0.5C-47-564.4-47.4-564.6-47.8-565.2z M-49.8-580.3l0.5-2.7c0-0.1,0-0.2,0-0.4
			c0-0.6-0.1-1.3-0.3-2.1c-0.1-0.4-0.3-0.7-0.5-0.9c-0.2-0.3-0.4-0.4-0.6-0.4l-0.1,3.1c-0.1,1.4-0.1,2.5-0.1,3.2c0,0.7,0,1.2,0,1.4
			C-50.5-579.4-50.2-579.8-49.8-580.3z"/>
		<path class="st3" d="M-42.7-564.6c-0.4-0.1-0.5-0.4-0.5-0.9l0.1-18c0-0.4-0.1-0.9-0.2-1.6c-0.1-0.6-0.2-1.2-0.2-1.6l0-0.1
			c0.4-0.6,0.6-0.9,0.8-1.1c0.3,0,0.7,0,1.1-0.1c0.4-0.1,0.8-0.1,1.1-0.1c0.3,0,0.6,0.1,1,0.3c0.3,0.2,0.5,0.4,0.5,0.7
			c0,0.6-0.5,0.9-1.4,0.9l-0.4,0c-0.1,0-0.3,0-0.4,0c-0.2,0-0.3,0-0.3,0c0,0.7,0,1.6,0.1,2.5l0.1,0.9l0,1.7c0,0.4,0,1-0.1,1.8
			l-0.1,1.7l0.4-0.1c0.4-0.1,0.8-0.2,1-0.2c0.2,0,0.4,0.1,0.6,0.3s0.3,0.4,0.3,0.6c0,0.2-0.1,0.5-0.2,0.7c-0.2,0.2-0.3,0.3-0.6,0.3
			l-0.4,0l-0.4,0c-0.3,0-0.5,0.1-0.7,0.2l-0.1,9.6l1.7-0.1c1.2,0,1.8,0.3,1.8,0.8l0,0.1c-0.1,0.2-0.4,0.4-0.7,0.6
			c-0.3,0.2-0.7,0.2-1,0.3l-1,0l-1,0C-42-564.5-42.4-564.5-42.7-564.6z"/>
		<path class="st3" d="M-27.9-563.9c-0.1,0-0.2,0-0.3,0c-0.5-3.2-1.1-5.8-1.6-7.9c-0.5-2.1-1.2-4.1-2.1-6l-0.7,1.2
			c-0.2,0.4-0.3,0.7-0.3,0.9c-0.1,0.6-0.1,1.1-0.1,1.4c0,0.6,0,1.6,0.1,2.9c0.1,1.3,0.1,2.2,0.1,2.9l0,2.5c0,1.1-0.4,1.6-1.1,1.6
			c-0.6,0-0.9-0.6-0.9-1.7c0-0.9,0.1-2.3,0.2-4.2c0.2-1.7,0.2-3.1,0.2-4.2l0.1-2.7l0-3.2c0-1.1-0.1-2.3-0.2-3.6
			c-0.1-1.3-0.2-2.3-0.2-2.9c0-0.3,0.1-0.5,0.3-0.7c0.2-0.2,0.4-0.3,0.6-0.3c0.8,0,1.1,0.8,1.1,2.5l-0.2,6.4l0.6-1.5
			c0.7-1.7,1.4-3.4,2.1-5.1c0.4-0.9,0.8-1.7,1.1-2.2c0.4-0.6,0.6-0.8,0.8-0.8c0.2,0,0.4,0.1,0.6,0.2c0.2,0.2,0.3,0.3,0.3,0.6
			c0,0.2-0.6,1.5-1.7,3.8c-1.1,2.2-1.8,3.7-2,4.5l0,0.6c0.3,0.8,1.1,3.3,2.4,7.6c1.3,4.3,2,6.5,2,6.8s-0.1,0.5-0.3,0.6
			c-0.2,0.2-0.4,0.2-0.7,0.2C-27.6-563.8-27.8-563.8-27.9-563.9z"/>
	</g>
</g>
</svg>
