<?xml version="1.0" encoding="utf-8"?>
<!-- Generator: Adobe Illustrator 22.1.0, SVG Export Plug-In . SVG Version: 6.00 Build 0)  -->
<svg version="1.1" id="Calque_1" xmlns="http://www.w3.org/2000/svg" xmlns:xlink="http://www.w3.org/1999/xlink" x="0px" y="0px"
	 viewBox="0 0 200 200" style="enable-background:new 0 0 200 200;" xml:space="preserve">
<style type="text/css">
	.st0{opacity:0.25;fill:#FFFFFF;}
	.st1{fill:#F26419;}
	.st2{fill:#F6AE2D;}
</style>
<g>
	<path class="st0" d="M154.1,94.8c0-33.5-28.7-58.8-64.1-60.7C53.9,32.2,26,60.1,26,94.8c0,33.5,28.7,60.7,64.1,60.7
		S154.1,128.3,154.1,94.8z"/>
	<g>
		<path class="st1" d="M115.7,158.2c-0.2-0.1-0.2-0.4-0.2-0.7l0-4.4c-0.3-0.2-0.8-0.4-1.6-0.5c-0.8-0.2-1.6-0.3-2.3-0.3
			c-0.2,0.5-0.4,1-0.5,1.7l-0.1,0.7c0,0.2-0.1,0.5-0.2,1s-0.2,1-0.4,1.4c-0.1,0.4-0.3,0.7-0.4,0.9c-0.9,0-1.3-0.2-1.5-0.7
			c0.2-0.4,0.5-1.4,0.9-3.1l1.2-6.1c0.5-2.9,1-5.4,1.4-7.4c0.4-2.1,0.9-3.8,1.4-5.2c0.5-1.5,1-2.3,1.5-2.3c0.5,0,0.8,0.1,1.1,0.3
			c0,0.9,0.2,3.1,0.6,6.5c0.4,3.4,0.6,5.7,0.6,6.9c0,1.2,0.1,2.9,0.3,5.1c0.2,2.3,0.3,4.1,0.3,5.4c0,0.8-0.4,1.1-1.1,1.1
			C116.2,158.4,115.9,158.4,115.7,158.2z M115.5,151.1c-0.1-1-0.2-2.2-0.3-3.7c-0.5-5.1-0.7-8.2-0.7-9.3l0-0.3
			c-0.2,0.2-0.5,1.2-0.9,3s-0.8,3.7-1.1,5.8c-0.4,2.1-0.5,3.4-0.6,4.1c0.9,0.3,1.9,0.4,3,0.4C115,151.2,115.2,151.2,115.5,151.1z"/>
		<path class="st1" d="M122.7,158c0.5-0.8,1.1-2.8,1.7-6.1c0.7-3.3,1.2-6.7,1.7-10.2c0.5-3.5,0.7-5.8,0.8-6.9l-1.2,0.1
			c-0.2,0-0.4,0-0.7,0c-1.2,0-1.8-0.4-1.8-1.1l0-0.2l0.4-0.5l0,0c0.3,0.1,0.6,0.1,1,0.1c0.4,0,0.9-0.1,1.6-0.2
			c0.8-0.1,1.3-0.2,1.6-0.2s0.5,0.1,0.7,0.3c0.2,0.2,0.2,0.4,0.2,0.7c0,5.9-1.3,13.6-3.9,23.2l0.7,0c0.3,0,0.6-0.1,1-0.1
			c1.2,0,1.8,0.3,1.8,1l0,0.2l-0.5,0.5l-2,0.1c-0.6,0-1.3,0.1-2.1,0.1C123.3,158.8,122.9,158.5,122.7,158z"/>
		<path class="st1" d="M136.7,158.3c-0.2-0.3-0.3-0.7-0.3-1.2c0-0.7,0.1-1.6,0.2-2.7l0.1-0.9l0.1-1.8c0-0.8-0.1-2.5-0.2-5.2
			c-0.1-2.7-0.2-4.5-0.2-5.2c0-0.1,0-0.2,0-0.4s0-0.5,0-0.9c0-0.4,0-1,0-1.6c0-1.6-0.1-2.7-0.3-3.1c-0.1,0-0.4,0-0.9,0.1l-0.9,0.1
			c-0.3,0-0.5-0.1-0.8-0.3s-0.3-0.4-0.3-0.7s0.3-0.5,0.8-0.7c0.8-0.3,2.1-0.4,4-0.5c0.8,0,1.2-0.1,1.4-0.1c0.3,0,0.5,0.1,0.7,0.3
			c0.2,0.2,0.3,0.4,0.3,0.7s-0.1,0.5-0.3,0.7s-0.4,0.2-0.7,0.2l-0.6,0c-0.2,0-0.4,0-0.6,0l-0.3,0c0.1,1.5,0.2,2.9,0.2,4.1l0,2.1
			c0,0.6,0,1.4,0,2.2c0,1.1,0,2.4,0.1,3.9c0.1,1.9,0.1,3.1,0.1,3.9c0,0.9,0,1.9,0.1,3c0.1,1.2,0.1,2.2,0.1,3c0,1.1-0.3,1.6-1,1.6
			C137.1,158.8,136.9,158.6,136.7,158.3z"/>
		<path class="st1" d="M151,158.1l0-0.1c-0.1-1.2-0.3-2.5-0.6-4c-0.3-1.5-0.8-3.2-1.4-5.3c-0.5-1.5-0.9-2.9-1.2-4.2l-0.1,13.2
			c0,0.4-0.1,0.6-0.2,0.8c-0.1,0.2-0.4,0.2-0.7,0.2c-0.3,0-0.5-0.1-0.6-0.3c-0.2-0.2-0.2-0.4-0.2-0.7l0-0.3l0.1-9.9
			c0.1-2.9,0.1-6.2,0.1-9.8l0-4.1c0-0.3,0.1-0.5,0.2-0.6c0.1-0.1,0.3-0.1,0.7-0.1c0.6,0,1.1,0.1,1.5,0.3c0.5,0.2,0.9,0.5,1.2,0.9
			c0.7,0.8,1.1,1.7,1.3,2.8c0.1,0.4,0.1,1,0.1,1.5c0,0.3,0,0.7-0.1,1.1c-0.1,0.4-0.1,0.7-0.1,0.8c0,0.2-0.1,0.6-0.3,1
			c-0.2,0.4-0.3,0.7-0.3,0.9l-0.4,0.9l-0.3,0.9c0,0.8,0.1,1.8,0.4,3.1c0.2,1.2,0.5,2.4,0.8,3.4c0.2,0.7,0.6,2,1.2,3.7l1,3v0.1
			c0,0.4,0,0.7-0.1,1c-0.1,0.4-0.3,0.5-0.7,0.5C151.8,159,151.4,158.7,151,158.1z M148.9,141.8l0.5-2.9c0-0.1,0-0.3,0-0.5
			c0-0.6-0.1-1.4-0.4-2.3c-0.1-0.4-0.3-0.7-0.5-1c-0.2-0.3-0.4-0.4-0.7-0.5l-0.1,3.4c-0.1,1.5-0.1,2.7-0.1,3.5c0,0.8,0,1.3,0,1.5
			C148,142.8,148.4,142.3,148.9,141.8z"/>
		<path class="st1" d="M158.8,158.8c-0.4-0.1-0.6-0.4-0.6-0.9l0.1-19.5c0-0.4-0.1-1-0.2-1.7c-0.2-0.7-0.2-1.3-0.2-1.7l0-0.1
			c0.4-0.6,0.7-1,0.8-1.2c0.3,0,0.7,0,1.2-0.1c0.5-0.1,0.9-0.1,1.2-0.1s0.7,0.1,1,0.3c0.3,0.2,0.5,0.5,0.5,0.8c0,0.7-0.5,1-1.6,1
			l-0.5,0c-0.1,0-0.3,0-0.5,0c-0.2,0-0.3,0-0.4,0c0,0.8,0,1.7,0.1,2.8l0.1,0.9l0.1,1.8c0,0.4,0,1.1-0.1,1.9l-0.1,1.9l0.5-0.1
			c0.4-0.1,0.8-0.2,1.1-0.2c0.2,0,0.5,0.1,0.7,0.3c0.2,0.2,0.3,0.4,0.3,0.7c0,0.3-0.1,0.5-0.3,0.7c-0.2,0.2-0.4,0.3-0.6,0.3l-0.4,0
			l-0.4,0c-0.3,0-0.6,0.1-0.7,0.2l-0.1,10.4l1.9-0.1c1.3,0,1.9,0.3,1.9,0.9l0,0.1c-0.1,0.3-0.4,0.5-0.7,0.6c-0.4,0.2-0.7,0.3-1,0.3
			l-1.1,0l-1,0C159.5,158.9,159.1,158.9,158.8,158.8z"/>
		<path class="st1" d="M177.1,159.6c-0.1,0-0.2,0-0.4,0c-0.6-3.4-1.2-6.3-1.8-8.6c-0.6-2.3-1.3-4.5-2.2-6.5l-0.7,1.3
			c-0.2,0.4-0.3,0.7-0.3,1c-0.1,0.7-0.1,1.2-0.1,1.5c0,0.7,0,1.7,0.1,3.1c0.1,1.4,0.1,2.4,0.1,3.1l0,2.8c0,1.2-0.4,1.8-1.2,1.8
			c-0.6,0-1-0.6-1-1.9c0-1,0.1-2.5,0.2-4.5c0.2-1.9,0.3-3.4,0.3-4.5l0.1-2.9l0-3.5c0-1.2-0.1-2.5-0.2-3.9c-0.1-1.4-0.2-2.4-0.2-3.2
			c0-0.3,0.1-0.5,0.3-0.7s0.4-0.3,0.7-0.3c0.8,0,1.2,0.9,1.2,2.7l-0.2,6.9l0.6-1.6c0.8-1.9,1.5-3.7,2.3-5.6c0.5-1,0.9-1.8,1.2-2.4
			c0.4-0.6,0.7-0.9,0.9-0.9c0.2,0,0.5,0.1,0.7,0.3c0.2,0.2,0.3,0.4,0.3,0.6c0,0.2-0.6,1.6-1.8,4.1c-1.2,2.4-1.9,4-2.1,4.9l0,0.6
			c0.3,0.9,1.2,3.6,2.6,8.2c1.4,4.6,2.1,7,2.1,7.3s-0.1,0.5-0.3,0.7c-0.2,0.2-0.5,0.3-0.8,0.3C177.4,159.6,177.2,159.6,177.1,159.6z
			"/>
	</g>
	<g>
		<path class="st2" d="M34,65.9c0,0,1.7,0.4,2.2,1.3s-1.3,0.9-0.9,1.3c0.4,0.4,0.9,1.7,0.9,1.7l-0.9,0.9l0.9,2.2l-0.9,0.9
			c0,0-1.7,5.2-2.2,5.2S31.8,78,31.8,78s-1.3,5.2,0.9,5.6c0,0-1.7,2.2-3,1.7c-1.3-0.4-0.9,9.9-0.9,9.9s-1.1,1-1.9-0.6
			C26,92.9,26.2,76.3,34,65.9z"/>
		<path class="st2" d="M121.9,55.5c0,0,0.7-0.3,0.7,0c0,0,0.7,1.1,0.3,1.1c-0.4,0,2.9,1.2,2.5,1.9c0,0,0.7-0.3,0.7,0
			c0,0.4,0.3,1.1-0.1,1.1c0,0-3,1.3-3,0.9c0-0.4,0.4-1.1,0.4-1.1l-0.7,0l0.4-0.3l0-0.4l0.1-1.1l-0.7-0.4c0,0-1.8-1.2-1.7-1.5
			c0-0.4,0.4-0.7,0.4-0.7S122,54.8,121.9,55.5z"/>
		<path class="st2" d="M120.3,57.9c0,0,0.8-1.7,1.8,0.1s-1.9,1.7-1.9,1.7S120,57.9,120.3,57.9z"/>
		
			<ellipse transform="matrix(3.450639e-02 -0.9994 0.9994 3.450639e-02 8.1191 181.0075)" class="st2" cx="97.7" cy="86.3" rx="5.2" ry="3.3"/>
		
			<ellipse transform="matrix(0.1982 -0.9802 0.9802 0.1982 -1.4468 178.1198)" class="st2" cx="108.1" cy="89.9" rx="2.9" ry="2.3"/>
		
			<ellipse transform="matrix(0.1982 -0.9802 0.9802 0.1982 -0.5929 188.0349)" class="st2" cx="114.6" cy="94.4" rx="2.1" ry="1.7"/>
		
			<ellipse transform="matrix(0.1982 -0.9802 0.9802 0.1982 -2.0447 195.8771)" class="st2" cx="118.7" cy="99.2" rx="1.6" ry="1.2"/>
		<ellipse transform="matrix(0.1982 -0.9802 0.9802 0.1982 -5.089 203.3081)" class="st2" cx="121.7" cy="104.8" rx="1.3" ry="1"/>
		<path class="st2" d="M85.8,79.7c0,0-4.1-10-14.4-1.1c0,0-0.9,12.5,5.5,3.3l3.8,0.3l-3.3,5.5c0,0,6-2.4,6.7,0.5s0.5,6.8,0.5,6.8
			s5.9-1.5,5.8,0.4c-0.1,1.9,6-2.4,11.5,0.9c0,0,2.6-2.8,7.6,4.9c0,0,4.5,0.9,6.1,5.8c0,0,10.1,7.5,1.1,11.7c0,0-4.1,16.1-17.1,21.9
			c0,0-6.2,11.7-8.7,10.2c-2.5-1.4-3.5-15,3.1-25.2c0,0-16.6-16.2-4.9-24.5c-1.4,1.2-17.7-12.9-15.4-13.7c1.4-0.5-7,3.3-15.5-12.8
			s-0.8-15.5-0.8-15.5s-6.4-4.4-4.3-7.1c2.1-2.7-14,5.1-14,5.1s14.8-27.9,62-22.2c0,0-11.9-0.6-11.1,1.4s13,6.8,12.8,9.7
			c-0.2,2.9-3.1,2.7-3.1,2.7s-11.9-13.1-13.4-9.5c-1.6,3.6,14.6,20.2,14.6,20.2S90.6,81,85.8,79.7z"/>
		<path class="st2" d="M131,48.5c0,0,40.5,27.9,13.9,77.2c0,0-2.5-0.8,2.9-25.2c0,0-1.1-0.7-1.9-3.7c-0.8-2.9-11,6-12.2-4.7
			s5.3-20.9,13.8-18.4l-1.6-4.9c0,0-4.8-0.3-1.6-4.9c0,0-2.6-5-4,1.7l1.7,4c0,0-5.4-6.2-7.4-4.4c0,0,1.8,2.1,2.8,2.1
			c1,0.1,0.9,1,0.9,1l-0.1,1.9l-0.8-2l-3.8-2c0,0-3.6,1.3-2.9,0.6c0.5-0.4-0.3,4.8-0.3,4.8s-6,2.5-5.8,0.6s-0.7-3.9-0.7-3.9
			s2.9,0.2,3.9-0.7c1-0.9-1-3.2-1-3.2l-1.7,0.1l0.1-1l1-0.9l0.1-1l0.9,1l1.1-1.9l1.1-1.9l-0.8-2l1.8,2.1l1,0.1l2-0.8l-0.8-2.9
			c0,0-2.6-5-3.6-4.1c-1,0.9,1.9,4.3,1.9,4.3l-4-1.6l-0.4,2.3l-1.6-1.1c0,0,3.2-5,0.3-4.2c0,0-1.6-4.9,6-2.5L131,48.5z"/>
		<path class="st2" d="M45.9,115h-3.9l-2.9-3.9c0,0-14.5,7.7,1,16.4c0,0,6.7,0,10.6,8.7c0,0,10.9-5.3-1.8-17.1
			C49,119.1,46.9,109.2,45.9,115z"/>
	</g>
	<g>
		<path class="st1" d="M51.7,165.9c-0.3,0.8-0.6,1.4-0.9,1.8s-0.6,0.7-0.9,0.9s-0.6,0.2-0.8,0.1s-0.5-0.3-0.7-0.6s-0.4-0.7-0.6-1.1
			s-0.3-0.9-0.4-1.5s-0.1-1.1-0.1-1.7s0-1.2,0.1-1.7l0.5,0c-0.1,1-0.1,1.9,0,2.6s0.2,1.4,0.3,1.8s0.3,0.9,0.5,1.1s0.4,0.4,0.6,0.4
			c0.3,0,0.5-0.1,0.7-0.2s0.4-0.3,0.6-0.6s0.3-0.5,0.4-0.8s0.2-0.6,0.3-0.9s0.1-0.6,0.2-0.9s0-0.5,0-0.7c0-0.3,0-0.5,0-0.7
			s0-0.4-0.1-0.6s-0.1-0.4-0.1-0.6s-0.1-0.5-0.1-0.7l0.6-0.4c0.2,1.1,0.3,2.1,0.5,2.9s0.2,1.5,0.3,2s0.2,1,0.2,1.3s0.1,0.6,0.1,0.8
			s0.1,0.3,0.1,0.4s0,0.1,0,0.2h-0.5L51.7,165.9z"/>
		<path class="st1" d="M53.5,168.7c0-0.1,0-0.3,0-0.5s0-0.5,0-0.8s0-0.6,0-0.9s0-0.6,0-0.9s0-0.6,0-0.8s0-0.4-0.1-0.5c0,0,0,0,0-0.1
			s0-0.1,0-0.1s0-0.1,0-0.1s0,0,0-0.1c0.1-0.1,0.2-0.1,0.3-0.1s0.2,0.1,0.2,0.2s0.1,0.2,0.1,0.4s0,0.3,0.1,0.5s0,0.3,0,0.4
			s0,0.2,0,0.3c0-0.1,0-0.3,0.1-0.5s0.1-0.4,0.1-0.6s0.1-0.4,0.2-0.6s0.2-0.3,0.3-0.5s0.3-0.2,0.5-0.3s0.4-0.1,0.6-0.1
			c0.3,0,0.6,0.1,0.8,0.3s0.4,0.4,0.5,0.7s0.2,0.6,0.3,1s0.1,0.8,0.1,1.2s0,0.8,0,1.3s0,0.8,0,1.2c-0.1,0-0.1,0-0.2,0.1
			s-0.1,0.1-0.2,0s-0.1,0-0.1-0.1s0-0.2,0-0.4c0-0.1,0-0.4,0-0.7s0-0.6,0-1s0-0.7-0.1-1.1s-0.1-0.7-0.2-1s-0.3-0.6-0.5-0.8
			s-0.4-0.3-0.8-0.3c-0.3,0.1-0.6,0.4-0.8,0.8s-0.4,0.8-0.5,1.3s-0.2,1-0.3,1.6s-0.1,1.1-0.1,1.7c0,0,0,0-0.1,0s-0.1,0-0.1,0
			S53.6,168.8,53.5,168.7C53.5,168.7,53.5,168.7,53.5,168.7z"/>
		<path class="st1" d="M62.7,168.7c0-0.1,0-0.3,0-0.5s0-0.5,0-0.8s0-0.6,0-0.9s0-0.6,0-0.9s0-0.6,0-0.8s0-0.4-0.1-0.5c0,0,0,0,0-0.1
			s0-0.1,0-0.1s0-0.1,0-0.1s0,0,0-0.1c0.1-0.1,0.2-0.1,0.3-0.1s0.2,0.1,0.2,0.2s0.1,0.2,0.1,0.4s0,0.3,0.1,0.5s0,0.3,0,0.4
			s0,0.2,0,0.3c0-0.1,0-0.3,0.1-0.5s0.1-0.4,0.1-0.6s0.1-0.4,0.2-0.6s0.2-0.3,0.3-0.5s0.3-0.2,0.5-0.3s0.4-0.1,0.6-0.1
			c0.3,0,0.6,0.1,0.8,0.3s0.4,0.4,0.5,0.7s0.2,0.6,0.3,1s0.1,0.8,0.1,1.2s0,0.8,0,1.3s0,0.8,0,1.2c-0.1,0-0.1,0-0.2,0.1
			s-0.1,0.1-0.2,0s-0.1,0-0.1-0.1s0-0.2,0-0.4c0-0.1,0-0.4,0-0.7s0-0.6,0-1s0-0.7-0.1-1.1s-0.1-0.7-0.2-1s-0.3-0.6-0.5-0.8
			s-0.4-0.3-0.8-0.3c-0.3,0.1-0.6,0.4-0.8,0.8s-0.4,0.8-0.5,1.3s-0.2,1-0.3,1.6s-0.1,1.1-0.1,1.7c0,0,0,0-0.1,0s-0.1,0-0.1,0
			S62.8,168.8,62.7,168.7C62.7,168.7,62.7,168.7,62.7,168.7z"/>
		<path class="st1" d="M67.3,166.6c0-0.2,0-0.4,0-0.6s0.1-0.5,0.2-0.7s0.2-0.5,0.3-0.7s0.2-0.4,0.4-0.6s0.3-0.3,0.5-0.4
			s0.4-0.2,0.7-0.2c0.2,0,0.5,0.1,0.7,0.3s0.4,0.4,0.6,0.7s0.3,0.6,0.3,0.9s0.1,0.7,0.1,1c0,0.5-0.1,0.9-0.3,1.3s-0.4,0.7-0.7,0.9
			s-0.6,0.4-0.9,0.5s-0.6,0.1-0.9-0.1s-0.5-0.3-0.7-0.7S67.3,167.2,67.3,166.6z M67.8,166.7c0,0.5,0.1,0.8,0.2,1.1s0.3,0.4,0.5,0.5
			s0.4,0.1,0.7,0s0.5-0.2,0.7-0.4s0.4-0.4,0.5-0.8s0.2-0.6,0.2-1c0-0.3,0-0.6-0.1-0.8s-0.1-0.5-0.2-0.7s-0.2-0.4-0.4-0.5
			s-0.3-0.2-0.5-0.2c-0.2,0-0.4,0-0.5,0.1s-0.3,0.2-0.4,0.4s-0.2,0.3-0.3,0.5s-0.2,0.4-0.2,0.6s-0.1,0.4-0.1,0.6
			S67.8,166.6,67.8,166.7z"/>
		<path class="st1" d="M71.6,164.2c0,0,0-0.1,0.1-0.1s0.1-0.1,0.2-0.1s0.1,0,0.2,0s0.1,0,0.2,0c0,1,0.1,1.7,0.3,2.3s0.3,1,0.5,1.3
			s0.4,0.4,0.6,0.4s0.4-0.1,0.6-0.3s0.4-0.4,0.5-0.7s0.3-0.6,0.4-1s0.2-0.7,0.2-1.1s0-0.7-0.1-0.9l0.7-0.1c0,0.1,0,0.3,0.1,0.6
			s0.1,0.6,0.1,0.9s0.1,0.7,0.1,1.1s0.1,0.7,0.1,1s0.1,0.6,0.1,0.8s0,0.4,0,0.4h-0.5l-0.6-2c-0.1,0.3-0.2,0.5-0.4,0.8
			s-0.3,0.5-0.5,0.7s-0.4,0.3-0.6,0.4s-0.4,0.1-0.6,0.1s-0.4-0.1-0.6-0.3s-0.4-0.4-0.5-0.8s-0.3-0.8-0.4-1.4S71.7,165.1,71.6,164.2z
			"/>
		<path class="st1" d="M76.9,163.6l0.4-0.4l2.6,4.7l1.1-4.5c0.1,0,0.1,0,0.2,0.1s0.1,0,0.2,0s0.1,0,0.1,0s0,0,0,0.1
			c-0.1,0.5-0.2,1-0.3,1.4s-0.2,0.9-0.3,1.3s-0.2,0.8-0.3,1.2s-0.3,0.9-0.4,1.3h-0.5L76.9,163.6z"/>
		<path class="st1" d="M81.7,166c0-0.2,0.1-0.5,0.2-0.8s0.2-0.6,0.4-0.8s0.4-0.5,0.6-0.6s0.5-0.3,0.7-0.3c0.1,0,0.3,0,0.4,0.1
			s0.3,0.1,0.4,0.2s0.2,0.2,0.3,0.3s0.2,0.2,0.2,0.4s0.1,0.2,0.1,0.4s0,0.2-0.1,0.3l-2.5,0.5c0,0-0.1,0-0.1,0.1s0,0.2-0.1,0.3
			s0,0.2,0,0.3s0,0.2,0,0.4s0,0.2,0,0.3s0,0.2,0,0.2c0,0.2,0.1,0.4,0.2,0.5s0.2,0.2,0.4,0.3s0.3,0.1,0.6,0.1s0.4,0,0.6,0
			s0.4,0,0.6,0s0.3,0,0.4,0c0,0,0,0.1,0,0.1s-0.1,0.1-0.1,0.1s-0.1,0.1-0.1,0.1s-0.1,0-0.1,0.1c-0.1,0-0.2,0-0.3,0.1
			s-0.3,0.1-0.4,0.1s-0.3,0-0.4,0.1s-0.2,0-0.3,0c-0.2,0-0.5,0-0.6,0s-0.3-0.1-0.5-0.3S82,168.2,82,168s-0.1-0.4-0.2-0.6
			s-0.1-0.4-0.1-0.7S81.7,166.3,81.7,166z M83.4,164c-0.1,0-0.2,0-0.3,0.1s-0.2,0.2-0.3,0.3s-0.2,0.2-0.2,0.4s-0.1,0.2-0.1,0.3
			c0.2,0,0.4,0,0.6,0s0.4-0.1,0.6-0.1s0.3-0.1,0.4-0.2s0.2-0.2,0.2-0.3s-0.1-0.2-0.2-0.3S83.8,164.1,83.4,164z"/>
		<path class="st1" d="M85.6,167.8c0-0.4,0.1-0.8,0.4-1s0.6-0.3,1-0.3c0.2,0,0.3,0,0.4,0s0.3,0,0.4,0.1s0.2,0.1,0.4,0.1
			s0.2,0.2,0.4,0.3c0,0,0-0.1,0-0.1s0-0.2,0-0.2s0-0.2,0-0.2s0-0.1,0-0.2c0-0.1,0-0.3,0-0.5s0-0.5-0.1-0.7s-0.1-0.5-0.2-0.7
			s-0.3-0.4-0.5-0.5c-0.2,0-0.3,0-0.5,0.1s-0.3,0.1-0.4,0.2s-0.3,0.1-0.4,0.2s-0.3,0.1-0.5,0.1c0-0.2,0.1-0.4,0.2-0.5
			s0.3-0.2,0.4-0.3s0.4-0.1,0.5-0.1s0.4,0,0.5,0c0.1,0,0.3,0.1,0.4,0.1s0.2,0.1,0.3,0.2s0.2,0.2,0.3,0.4s0.2,0.5,0.2,0.8
			s0.1,0.8,0.2,1.3s0.1,1.2,0.1,1.9c0,0.1,0,0.2-0.1,0.3s-0.2,0.1-0.3,0.2s-0.3,0.1-0.5,0.1s-0.4,0.1-0.5,0.1s-0.4,0-0.5,0
			s-0.3,0-0.4,0c-0.1,0-0.3,0-0.4-0.1s-0.3-0.1-0.4-0.2s-0.2-0.2-0.3-0.3S85.6,167.9,85.6,167.8z M87.1,167
			c-0.4,0.1-0.7,0.2-0.8,0.4s-0.2,0.3-0.2,0.4s0.1,0.3,0.3,0.4s0.4,0.2,0.6,0.2s0.5,0,0.8-0.1s0.5-0.2,0.8-0.4
			c-0.1-0.2-0.2-0.4-0.3-0.5s-0.2-0.2-0.3-0.3s-0.2-0.1-0.4-0.1S87.3,167,87.1,167z"/>
		<path class="st1" d="M89.7,164.2c0,0,0-0.1,0.1-0.1s0.1-0.1,0.2-0.1s0.1,0,0.2,0s0.1,0,0.2,0c0,1,0.1,1.7,0.3,2.3s0.3,1,0.5,1.3
			s0.4,0.4,0.6,0.4s0.4-0.1,0.6-0.3s0.4-0.4,0.5-0.7s0.3-0.6,0.4-1s0.2-0.7,0.2-1.1s0-0.7-0.1-0.9L94,164c0,0.1,0,0.3,0.1,0.6
			s0.1,0.6,0.1,0.9s0.1,0.7,0.1,1.1s0.1,0.7,0.1,1s0.1,0.6,0.1,0.8s0,0.4,0,0.4h-0.5l-0.6-2c-0.1,0.3-0.2,0.5-0.4,0.8
			s-0.3,0.5-0.5,0.7s-0.4,0.3-0.6,0.4s-0.4,0.1-0.6,0.1s-0.4-0.1-0.6-0.3s-0.4-0.4-0.5-0.8s-0.3-0.8-0.4-1.4S89.7,165.1,89.7,164.2z
			"/>
		<path class="st1" d="M99.5,164.2c0.1,0,0.2,0,0.3,0.1s0.2,0.1,0.2,0.3c0.1-0.3,0.2-0.5,0.3-0.6s0.3-0.3,0.4-0.3s0.3-0.1,0.5-0.1
			s0.4,0.1,0.5,0.2s0.3,0.2,0.4,0.4s0.2,0.3,0.3,0.5c0.1-0.2,0.2-0.5,0.3-0.7s0.3-0.4,0.5-0.5s0.4-0.2,0.6-0.3s0.4-0.1,0.5,0
			s0.3,0.2,0.4,0.4s0.2,0.5,0.3,0.8c0,0.1,0,0.3,0.1,0.5s0,0.4,0.1,0.7s0.1,0.5,0.1,0.8s0.1,0.5,0.1,0.8s0.1,0.5,0.1,0.7
			s0,0.3,0.1,0.4c0,0.1,0,0.2,0,0.3s0,0.2-0.1,0.2s-0.1,0.1-0.1,0.1s-0.1,0-0.3-0.1c0-0.1,0-0.2,0-0.5s0-0.5-0.1-0.7
			s-0.1-0.6-0.1-0.9s-0.1-0.6-0.1-0.9s-0.1-0.5-0.1-0.7s0-0.4-0.1-0.4c-0.1-0.4-0.2-0.6-0.4-0.8s-0.3-0.2-0.4-0.2s-0.3,0.1-0.4,0.2
			s-0.2,0.3-0.3,0.6s-0.2,0.5-0.3,0.8s-0.1,0.6-0.2,0.8s-0.1,0.5-0.1,0.8s0,0.4,0,0.6l-0.5,0.1c0-0.8,0-1.4-0.1-1.8
			s-0.2-0.8-0.3-1.1s-0.3-0.4-0.4-0.5s-0.3,0-0.5,0.1s-0.3,0.3-0.4,0.6s-0.2,0.6-0.3,1s-0.1,0.8-0.1,1.3s0.1,1,0.2,1.6H100
			c0-0.3-0.1-0.6-0.1-0.8s-0.1-0.5-0.1-0.8s-0.1-0.6-0.1-0.9s-0.1-0.6-0.1-0.9s-0.1-0.5-0.1-0.7c0,0,0-0.1,0-0.2
			S99.5,164.2,99.5,164.2z"/>
		<path class="st1" d="M106.2,166.6c0-0.2,0-0.4,0-0.6s0.1-0.5,0.2-0.7s0.2-0.5,0.3-0.7s0.2-0.4,0.4-0.6s0.3-0.3,0.5-0.4
			s0.4-0.2,0.7-0.2c0.2,0,0.5,0.1,0.7,0.3s0.4,0.4,0.6,0.7s0.3,0.6,0.3,0.9s0.1,0.7,0.1,1c0,0.5-0.1,0.9-0.3,1.3s-0.4,0.7-0.7,0.9
			s-0.6,0.4-0.9,0.5s-0.6,0.1-0.9-0.1s-0.5-0.3-0.7-0.7S106.2,167.2,106.2,166.6z M106.6,166.7c0,0.5,0.1,0.8,0.2,1.1
			s0.3,0.4,0.5,0.5s0.4,0.1,0.7,0s0.5-0.2,0.7-0.4s0.4-0.4,0.5-0.8s0.2-0.6,0.2-1c0-0.3,0-0.6-0.1-0.8s-0.1-0.5-0.2-0.7
			s-0.2-0.4-0.4-0.5s-0.3-0.2-0.5-0.2c-0.2,0-0.4,0-0.5,0.1s-0.3,0.2-0.4,0.4s-0.2,0.3-0.3,0.5s-0.2,0.4-0.2,0.6s-0.1,0.4-0.1,0.6
			S106.6,166.6,106.6,166.7z"/>
		<path class="st1" d="M110.6,168.7c0-0.1,0-0.3,0-0.5s0-0.5,0-0.8s0-0.6,0-0.9s0-0.6,0-0.9s0-0.6,0-0.8s0-0.4-0.1-0.5
			c0,0,0,0,0-0.1s0-0.1,0-0.1s0-0.1,0-0.1s0,0,0-0.1c0.1-0.1,0.2-0.1,0.3-0.1s0.2,0.1,0.2,0.2s0.1,0.2,0.1,0.4s0,0.3,0.1,0.5
			s0,0.3,0,0.4s0,0.2,0,0.3c0-0.1,0-0.3,0.1-0.5s0.1-0.4,0.1-0.6s0.1-0.4,0.2-0.6s0.2-0.3,0.3-0.5s0.3-0.2,0.5-0.3s0.4-0.1,0.6-0.1
			c0.3,0,0.6,0.1,0.8,0.3s0.4,0.4,0.5,0.7s0.2,0.6,0.3,1s0.1,0.8,0.1,1.2s0,0.8,0,1.3s0,0.8,0,1.2c-0.1,0-0.1,0-0.2,0.1
			s-0.1,0.1-0.2,0s-0.1,0-0.1-0.1s0-0.2,0-0.4c0-0.1,0-0.4,0-0.7s0-0.6,0-1s0-0.7-0.1-1.1s-0.1-0.7-0.2-1s-0.3-0.6-0.5-0.8
			s-0.4-0.3-0.8-0.3c-0.3,0.1-0.6,0.4-0.8,0.8s-0.4,0.8-0.5,1.3s-0.2,1-0.3,1.6s-0.1,1.1-0.1,1.7c0,0,0,0-0.1,0s-0.1,0-0.1,0
			S110.8,168.8,110.6,168.7C110.7,168.7,110.7,168.7,110.6,168.7z"/>
		<path class="st1" d="M115,167.1c0-0.2,0-0.4,0.1-0.7s0.2-0.5,0.3-0.7s0.3-0.4,0.5-0.5s0.4-0.2,0.7-0.2c0.2,0,0.4,0,0.5,0.1
			s0.3,0.1,0.4,0.2s0.2,0.2,0.4,0.3s0.2,0.2,0.4,0.4l-0.1-6c0.2-0.1,0.3-0.1,0.4-0.1s0.1,0.1,0.1,0.2c0,0,0,0,0,0.1s0,0.1,0,0.1
			c0,0.1,0,0.4,0,0.6s0,0.6,0,0.9s0,0.7,0,1.2s0,0.8,0,1.3s0,0.8,0,1.3s0,0.8,0,1.2s0,0.7,0,1s0,0.5,0,0.6c-0.1,0.2-0.2,0.3-0.4,0.4
			s-0.3,0.2-0.5,0.2s-0.4,0.1-0.5,0.1s-0.4,0-0.5,0c-0.5,0-0.9-0.2-1.2-0.5S115,167.6,115,167.1z M115.5,166.8c0,0.2,0,0.4,0,0.6
			s0.1,0.4,0.2,0.5s0.2,0.3,0.3,0.4s0.3,0.1,0.5,0.1c0.1,0,0.3,0,0.5,0s0.4,0,0.5-0.1s0.3-0.1,0.4-0.2s0.2-0.2,0.2-0.4
			c0-0.2,0-0.4-0.1-0.7s-0.1-0.5-0.3-0.8s-0.3-0.4-0.5-0.6s-0.4-0.3-0.7-0.3c-0.2,0-0.3,0-0.5,0.1s-0.3,0.2-0.4,0.3
			s-0.2,0.3-0.3,0.4S115.5,166.6,115.5,166.8z"/>
		<path class="st1" d="M119.2,166c0-0.2,0.1-0.5,0.2-0.8s0.2-0.6,0.4-0.8s0.4-0.5,0.6-0.6s0.5-0.3,0.7-0.3c0.1,0,0.3,0,0.4,0.1
			s0.3,0.1,0.4,0.2s0.2,0.2,0.3,0.3s0.2,0.2,0.2,0.4s0.1,0.2,0.1,0.4s0,0.2-0.1,0.3l-2.5,0.5c0,0-0.1,0-0.1,0.1s0,0.2-0.1,0.3
			s0,0.2,0,0.3s0,0.2,0,0.4s0,0.2,0,0.3s0,0.2,0,0.2c0,0.2,0.1,0.4,0.2,0.5s0.2,0.2,0.4,0.3s0.3,0.1,0.6,0.1s0.4,0,0.6,0
			s0.4,0,0.6,0s0.3,0,0.4,0c0,0,0,0.1,0,0.1s-0.1,0.1-0.1,0.1s-0.1,0.1-0.1,0.1s-0.1,0-0.1,0.1c-0.1,0-0.2,0-0.3,0.1
			s-0.3,0.1-0.4,0.1s-0.3,0-0.4,0.1s-0.2,0-0.3,0c-0.2,0-0.5,0-0.6,0s-0.3-0.1-0.5-0.3s-0.2-0.3-0.3-0.5s-0.1-0.4-0.2-0.6
			s-0.1-0.4-0.1-0.7S119.2,166.3,119.2,166z M120.9,164c-0.1,0-0.2,0-0.3,0.1s-0.2,0.2-0.3,0.3s-0.2,0.2-0.2,0.4s-0.1,0.2-0.1,0.3
			c0.2,0,0.4,0,0.6,0s0.4-0.1,0.6-0.1s0.3-0.1,0.4-0.2s0.2-0.2,0.2-0.3s-0.1-0.2-0.2-0.3S121.2,164.1,120.9,164z"/>
		<path class="st1" d="M127.6,167.8c0-0.4,0.1-0.8,0.4-1s0.6-0.3,1-0.3c0.2,0,0.3,0,0.4,0s0.3,0,0.4,0.1s0.2,0.1,0.4,0.1
			s0.2,0.2,0.4,0.3c0,0,0-0.1,0-0.1s0-0.2,0-0.2s0-0.2,0-0.2s0-0.1,0-0.2c0-0.1,0-0.3,0-0.5s0-0.5-0.1-0.7s-0.1-0.5-0.2-0.7
			s-0.3-0.4-0.5-0.5c-0.2,0-0.3,0-0.5,0.1s-0.3,0.1-0.4,0.2s-0.3,0.1-0.4,0.2s-0.3,0.1-0.5,0.1c0-0.2,0.1-0.4,0.2-0.5
			s0.3-0.2,0.4-0.3s0.4-0.1,0.5-0.1s0.4,0,0.5,0c0.1,0,0.3,0.1,0.4,0.1s0.2,0.1,0.3,0.2s0.2,0.2,0.3,0.4s0.2,0.5,0.2,0.8
			s0.1,0.8,0.2,1.3s0.1,1.2,0.1,1.9c0,0.1,0,0.2-0.1,0.3s-0.2,0.1-0.3,0.2s-0.3,0.1-0.5,0.1s-0.4,0.1-0.5,0.1s-0.4,0-0.5,0
			s-0.3,0-0.4,0c-0.1,0-0.3,0-0.4-0.1s-0.3-0.1-0.4-0.2s-0.2-0.2-0.3-0.3S127.6,167.9,127.6,167.8z M129.1,167
			c-0.4,0.1-0.7,0.2-0.8,0.4s-0.2,0.3-0.2,0.4s0.1,0.3,0.3,0.4s0.4,0.2,0.6,0.2s0.5,0,0.8-0.1s0.5-0.2,0.8-0.4
			c-0.1-0.2-0.2-0.4-0.3-0.5s-0.2-0.2-0.3-0.3s-0.2-0.1-0.4-0.1S129.3,167,129.1,167z M129.1,161.1c0.1,0.1,0.2,0.3,0.3,0.4
			s0.1,0.2,0.2,0.3s0.1,0.2,0.2,0.4s0.2,0.3,0.3,0.5c0,0.1,0,0.1,0,0.1s-0.1,0-0.1,0s-0.1,0-0.1,0s-0.1,0-0.2,0.1
			c-0.1-0.2-0.2-0.3-0.2-0.4s-0.1-0.2-0.2-0.3s-0.1-0.2-0.2-0.3s-0.2-0.2-0.3-0.4L129.1,161.1z"/>
		<path class="st1" d="M136.1,166.8c0-0.3,0-0.6,0.1-1s0.2-0.7,0.4-1s0.4-0.6,0.7-0.8s0.6-0.3,0.9-0.3c0.2,0,0.3,0,0.4,0.1
			s0.2,0.2,0.3,0.3s0.1,0.3,0.1,0.4s0,0.3,0,0.5s0,0.3,0,0.5s0,0.3,0,0.4h-0.3c0,0,0-0.2,0-0.3s-0.1-0.4-0.1-0.5s-0.1-0.4-0.2-0.5
			s-0.2-0.2-0.3-0.2c-0.2,0-0.4,0.1-0.6,0.3s-0.4,0.4-0.5,0.6s-0.3,0.5-0.3,0.8s-0.1,0.5-0.1,0.6c0,0.2,0,0.4,0.1,0.6
			s0.1,0.4,0.2,0.6s0.2,0.3,0.4,0.5s0.4,0.2,0.6,0.1c0.2,0,0.4,0,0.5-0.1s0.3-0.2,0.5-0.2s0.3-0.2,0.5-0.2s0.3-0.1,0.5-0.1
			c0,0.2-0.1,0.4-0.2,0.5s-0.3,0.3-0.5,0.4s-0.4,0.2-0.7,0.2s-0.4,0.1-0.6,0.1c-0.3,0-0.5-0.1-0.7-0.2s-0.4-0.3-0.6-0.4
			s-0.3-0.4-0.4-0.6S136.1,167.1,136.1,166.8z"/>
		<path class="st1" d="M141,160.8l0.3,3.8c0.1,0,0.1-0.1,0.2-0.2s0.2-0.2,0.3-0.3s0.2-0.2,0.4-0.2s0.3-0.1,0.5-0.1
			c0.3,0,0.6,0.2,0.8,0.4s0.3,0.5,0.4,0.8s0.2,0.7,0.2,1.1s0,0.8,0,1.1s0,0.7-0.1,0.9s0,0.5-0.1,0.6l-0.4-0.1c0-0.1,0-0.2,0-0.3
			s0-0.3,0-0.5s0-0.4,0-0.7s0-0.4,0-0.6s0-0.4,0-0.5s0-0.3,0-0.3c0-0.2,0-0.4-0.1-0.6s-0.2-0.4-0.4-0.5s-0.3-0.1-0.6-0.1
			s-0.5,0.2-0.7,0.5c-0.2,0.3-0.4,0.7-0.5,1s-0.2,0.6-0.2,0.9s0,0.6,0,0.9s0,0.7,0,1l-0.5-0.1c0-0.1,0-0.2,0.1-0.5s0-0.5,0-0.8
			s0-0.7,0-1.1s0-0.8,0-1.2s0-0.9,0-1.3s0-0.8,0-1.2s0-0.8,0-1.1s0-0.6,0-0.8L141,160.8z"/>
		<path class="st1" d="M144.6,167.8c0-0.4,0.1-0.8,0.4-1s0.6-0.3,1-0.3c0.2,0,0.3,0,0.4,0s0.3,0,0.4,0.1s0.2,0.1,0.4,0.1
			s0.2,0.2,0.4,0.3c0,0,0-0.1,0-0.1s0-0.2,0-0.2s0-0.2,0-0.2s0-0.1,0-0.2c0-0.1,0-0.3,0-0.5s0-0.5-0.1-0.7s-0.1-0.5-0.2-0.7
			s-0.3-0.4-0.5-0.5c-0.2,0-0.3,0-0.5,0.1s-0.3,0.1-0.4,0.2s-0.3,0.1-0.4,0.2s-0.3,0.1-0.5,0.1c0-0.2,0.1-0.4,0.2-0.5
			s0.3-0.2,0.4-0.3s0.4-0.1,0.5-0.1s0.4,0,0.5,0c0.1,0,0.3,0.1,0.4,0.1s0.2,0.1,0.3,0.2s0.2,0.2,0.3,0.4s0.2,0.5,0.2,0.8
			s0.1,0.8,0.2,1.3s0.1,1.2,0.1,1.9c0,0.1,0,0.2-0.1,0.3s-0.2,0.1-0.3,0.2s-0.3,0.1-0.5,0.1s-0.4,0.1-0.5,0.1s-0.4,0-0.5,0
			s-0.3,0-0.4,0c-0.1,0-0.3,0-0.4-0.1s-0.3-0.1-0.4-0.2s-0.2-0.2-0.3-0.3S144.6,167.9,144.6,167.8z M146.1,167
			c-0.4,0.1-0.7,0.2-0.8,0.4s-0.2,0.3-0.2,0.4s0.1,0.3,0.3,0.4s0.4,0.2,0.6,0.2s0.5,0,0.8-0.1s0.5-0.2,0.8-0.4
			c-0.1-0.2-0.2-0.4-0.3-0.5s-0.2-0.2-0.3-0.3s-0.2-0.1-0.4-0.1S146.3,167,146.1,167z"/>
		<path class="st1" d="M151.3,167.7c-0.1,0.1-0.3,0.2-0.4,0.3s-0.2,0.2-0.3,0.2s-0.2,0.1-0.4,0.1s-0.3,0-0.4,0
			c-0.2,0-0.4-0.1-0.6-0.2s-0.3-0.3-0.4-0.4s-0.2-0.4-0.2-0.6s-0.1-0.4-0.1-0.6s0-0.4,0.1-0.6s0.1-0.4,0.2-0.6s0.2-0.4,0.3-0.6
			s0.2-0.4,0.4-0.5s0.3-0.3,0.5-0.4s0.4-0.1,0.6-0.1s0.4,0,0.6,0.1s0.3,0.2,0.5,0.3s0.2,0.3,0.3,0.5s0.1,0.4,0.1,0.6
			c0,0.4,0,0.8-0.1,1.2s-0.1,0.8-0.1,1.2s-0.1,0.8-0.1,1.2s-0.1,0.8-0.1,1.2c0,0.3,0,0.5,0.1,0.8s0.2,0.4,0.4,0.6s0.4,0.3,0.6,0.4
			s0.4,0.2,0.5,0.2c0,0-0.1,0-0.1,0.1s-0.1,0-0.2,0.1s-0.1,0-0.2,0.1s-0.1,0-0.1,0c-0.2,0-0.3-0.1-0.5-0.1s-0.3-0.2-0.4-0.3
			s-0.2-0.3-0.3-0.4s-0.1-0.3-0.1-0.5V167.7z M149,166.5c0,0.1,0,0.2,0,0.4s0.1,0.3,0.1,0.5s0.1,0.3,0.2,0.4s0.2,0.2,0.4,0.2
			c0.3,0,0.5-0.1,0.7-0.2s0.4-0.3,0.5-0.6s0.3-0.5,0.3-0.7s0.1-0.5,0.1-0.7c0-0.1,0-0.3,0-0.5s-0.1-0.3-0.1-0.5s-0.2-0.3-0.3-0.4
			s-0.3-0.2-0.5-0.2c-0.2,0-0.3,0-0.4,0.1s-0.3,0.2-0.4,0.4s-0.2,0.3-0.3,0.5s-0.2,0.4-0.2,0.5s-0.1,0.3-0.1,0.5
			S149,166.4,149,166.5z"/>
		<path class="st1" d="M152.7,164.2c0,0,0-0.1,0.1-0.1s0.1-0.1,0.2-0.1s0.1,0,0.2,0s0.1,0,0.2,0c0,1,0.1,1.7,0.3,2.3s0.3,1,0.5,1.3
			s0.4,0.4,0.6,0.4s0.4-0.1,0.6-0.3s0.4-0.4,0.5-0.7s0.3-0.6,0.4-1s0.2-0.7,0.2-1.1s0-0.7-0.1-0.9l0.7-0.1c0,0.1,0,0.3,0.1,0.6
			s0.1,0.6,0.1,0.9s0.1,0.7,0.1,1.1s0.1,0.7,0.1,1s0.1,0.6,0.1,0.8s0,0.4,0,0.4h-0.5l-0.6-2c-0.1,0.3-0.2,0.5-0.4,0.8
			s-0.3,0.5-0.5,0.7s-0.4,0.3-0.6,0.4s-0.4,0.1-0.6,0.1s-0.4-0.1-0.6-0.3s-0.4-0.4-0.5-0.8s-0.3-0.8-0.4-1.4
			S152.7,165.1,152.7,164.2z"/>
		<path class="st1" d="M158.1,166c0-0.2,0.1-0.5,0.2-0.8s0.2-0.6,0.4-0.8s0.4-0.5,0.6-0.6s0.5-0.3,0.7-0.3c0.1,0,0.3,0,0.4,0.1
			s0.3,0.1,0.4,0.2s0.2,0.2,0.3,0.3s0.2,0.2,0.2,0.4s0.1,0.2,0.1,0.4s0,0.2-0.1,0.3l-2.5,0.5c0,0-0.1,0-0.1,0.1s0,0.2-0.1,0.3
			s0,0.2,0,0.3s0,0.2,0,0.4s0,0.2,0,0.3s0,0.2,0,0.2c0,0.2,0.1,0.4,0.2,0.5s0.2,0.2,0.4,0.3s0.3,0.1,0.6,0.1s0.4,0,0.6,0
			s0.4,0,0.6,0s0.3,0,0.4,0c0,0,0,0.1,0,0.1s-0.1,0.1-0.1,0.1s-0.1,0.1-0.1,0.1s-0.1,0-0.1,0.1c-0.1,0-0.2,0-0.3,0.1
			s-0.3,0.1-0.4,0.1s-0.3,0-0.4,0.1s-0.2,0-0.3,0c-0.2,0-0.5,0-0.6,0s-0.3-0.1-0.5-0.3s-0.2-0.3-0.3-0.5s-0.1-0.4-0.2-0.6
			s-0.1-0.4-0.1-0.7S158.1,166.3,158.1,166z M159.8,164c-0.1,0-0.2,0-0.3,0.1s-0.2,0.2-0.3,0.3s-0.2,0.2-0.2,0.4s-0.1,0.2-0.1,0.3
			c0.2,0,0.4,0,0.6,0s0.4-0.1,0.6-0.1s0.3-0.1,0.4-0.2s0.2-0.2,0.2-0.3s-0.1-0.2-0.2-0.3S160.2,164.1,159.8,164z"/>
		<path class="st1" d="M166.9,165.8c0,0-0.1,0-0.1,0s-0.1,0-0.2,0s-0.1,0-0.1-0.1s-0.1-0.1-0.1-0.1c0-0.3,0.1-0.5,0.2-0.7
			s0.4-0.4,0.6-0.6s0.5-0.3,0.8-0.4s0.5-0.1,0.8-0.1c0.4,0,0.7,0.1,1,0.2s0.5,0.3,0.8,0.5s0.4,0.5,0.5,0.7s0.2,0.6,0.2,0.9
			c0,0.4-0.1,0.8-0.3,1.1s-0.4,0.6-0.8,0.9s-0.7,0.4-1,0.5s-0.8,0.2-1.1,0.1c0,0.3,0,0.6,0,1s-0.1,0.8-0.1,1.2s-0.1,0.9-0.1,1.4
			s-0.1,1-0.2,1.5c0,0,0,0-0.1,0s-0.1,0-0.1,0s-0.1,0-0.2,0s-0.1,0-0.1,0c0.1-0.6,0.1-1.3,0.1-2s0-1.3,0-2s0-1.3-0.1-2
			S167,166.4,166.9,165.8z M168.7,164.4c-0.1,0-0.3,0-0.5,0.1s-0.3,0.1-0.5,0.2s-0.2,0.2-0.3,0.3s-0.1,0.3-0.1,0.4
			c0,0.1,0,0.2,0.1,0.3s0.1,0.3,0.1,0.5s0.1,0.4,0.1,0.6s0.1,0.4,0.1,0.6s0.1,0.4,0.1,0.5s0,0.3,0.1,0.3c0.1,0,0.2,0,0.4,0
			s0.4,0,0.6-0.1s0.4-0.1,0.6-0.2s0.4-0.2,0.6-0.3s0.3-0.3,0.5-0.6s0.2-0.5,0.3-0.8c0-0.3-0.1-0.6-0.2-0.8s-0.3-0.4-0.4-0.5
			s-0.4-0.2-0.7-0.3S169,164.4,168.7,164.4z"/>
		<path class="st1" d="M171.8,167.8c0-0.4,0.1-0.8,0.4-1s0.6-0.3,1-0.3c0.2,0,0.3,0,0.4,0s0.3,0,0.4,0.1s0.2,0.1,0.4,0.1
			s0.2,0.2,0.4,0.3c0,0,0-0.1,0-0.1s0-0.2,0-0.2s0-0.2,0-0.2s0-0.1,0-0.2c0-0.1,0-0.3,0-0.5s0-0.5-0.1-0.7s-0.1-0.5-0.2-0.7
			s-0.3-0.4-0.5-0.5c-0.2,0-0.3,0-0.5,0.1s-0.3,0.1-0.4,0.2s-0.3,0.1-0.4,0.2s-0.3,0.1-0.5,0.1c0-0.2,0.1-0.4,0.2-0.5
			s0.3-0.2,0.4-0.3s0.4-0.1,0.5-0.1s0.4,0,0.5,0c0.1,0,0.3,0.1,0.4,0.1s0.2,0.1,0.3,0.2s0.2,0.2,0.3,0.4s0.2,0.5,0.2,0.8
			s0.1,0.8,0.2,1.3s0.1,1.2,0.1,1.9c0,0.1,0,0.2-0.1,0.3s-0.2,0.1-0.3,0.2s-0.3,0.1-0.5,0.1s-0.4,0.1-0.5,0.1s-0.4,0-0.5,0
			s-0.3,0-0.4,0c-0.1,0-0.3,0-0.4-0.1s-0.3-0.1-0.4-0.2s-0.2-0.2-0.3-0.3S171.8,167.9,171.8,167.8z M173.3,167
			c-0.4,0.1-0.7,0.2-0.8,0.4s-0.2,0.3-0.2,0.4s0.1,0.3,0.3,0.4s0.4,0.2,0.6,0.2s0.5,0,0.8-0.1s0.5-0.2,0.8-0.4
			c-0.1-0.2-0.2-0.4-0.3-0.5s-0.2-0.2-0.3-0.3s-0.2-0.1-0.4-0.1S173.5,167,173.3,167z"/>
		<path class="st1" d="M176.5,167.8c0.1,0,0.3,0,0.4,0.1s0.2,0.1,0.4,0.2s0.2,0.1,0.4,0.2s0.3,0.1,0.4,0.1c0.2,0,0.3,0,0.5-0.1
			s0.3-0.1,0.5-0.2s0.3-0.2,0.4-0.4s0.1-0.3,0.1-0.5c0-0.1,0-0.1,0-0.2s0-0.2-0.1-0.2s-0.1-0.2-0.2-0.2s-0.3-0.1-0.5-0.2
			s-0.5-0.1-0.8-0.1s-0.7,0-1.2,0.1c-0.1,0-0.2,0-0.3-0.1s-0.2-0.1-0.3-0.2s-0.2-0.2-0.2-0.3s-0.1-0.2-0.1-0.3
			c0-0.3,0.1-0.6,0.2-0.7s0.3-0.3,0.5-0.5s0.4-0.2,0.7-0.2s0.5-0.1,0.8-0.1c0.1,0,0.3,0,0.4,0s0.3,0,0.4,0.1s0.2,0.1,0.3,0.2
			s0.1,0.3,0.1,0.5c0,0.1,0,0.2-0.1,0.2s-0.1,0-0.1,0s-0.1-0.1-0.2-0.2s-0.2-0.2-0.3-0.2s-0.2-0.1-0.4-0.2s-0.3,0-0.5,0
			c-0.2,0-0.4,0-0.5,0.1s-0.3,0.1-0.5,0.2s-0.3,0.2-0.4,0.4s-0.1,0.3-0.1,0.6c0,0.1,0.1,0.2,0.2,0.2s0.2,0.1,0.4,0.1s0.4,0,0.6,0
			s0.5,0,0.7,0s0.5,0,0.7,0.1s0.4,0.1,0.6,0.2s0.3,0.3,0.4,0.5s0.1,0.4,0.1,0.8c0,0.2-0.1,0.4-0.2,0.6s-0.3,0.4-0.5,0.5
			s-0.4,0.3-0.7,0.4s-0.5,0.1-0.7,0.1c-0.1,0-0.2,0-0.4-0.1s-0.3-0.1-0.5-0.2s-0.3-0.2-0.4-0.3S176.5,168,176.5,167.8z"/>
	</g>
</g>
</svg>
